<?xml version="1.0" standalone="no"?>
<svg xmlns:xlink="http://www.w3.org/1999/xlink" id="wave" style="transform:rotate(180deg); transition: 0.3s" viewBox="0 0 1440 100" version="1.1" xmlns="http://www.w3.org/2000/svg"><defs><linearGradient id="sw-gradient-0" x1="0" x2="0" y1="1" y2="0"><stop stop-color="rgba(255, 249, 234, 1)" offset="0%"/><stop stop-color="rgba(255, 249, 234, 1)" offset="100%"/></linearGradient></defs><path style="transform:translate(0, 0px); opacity:1" fill="url(#sw-gradient-0)" d="M0,50L18.5,50C36.9,50,74,50,111,48.3C147.7,47,185,43,222,35C258.5,27,295,13,332,21.7C369.2,30,406,60,443,63.3C480,67,517,43,554,30C590.8,17,628,13,665,16.7C701.5,20,738,30,775,40C812.3,50,849,60,886,58.3C923.1,57,960,43,997,41.7C1033.8,40,1071,50,1108,58.3C1144.6,67,1182,73,1218,73.3C1255.4,73,1292,67,1329,65C1366.2,63,1403,67,1440,65C1476.9,63,1514,57,1551,45C1587.7,33,1625,17,1662,10C1698.5,3,1735,7,1772,16.7C1809.2,27,1846,43,1883,50C1920,57,1957,53,1994,58.3C2030.8,63,2068,77,2105,70C2141.5,63,2178,37,2215,23.3C2252.3,10,2289,10,2326,16.7C2363.1,23,2400,37,2437,50C2473.8,63,2511,77,2548,76.7C2584.6,77,2622,63,2640,56.7L2658.5,50L2658.5,100L2640,100C2621.5,100,2585,100,2548,100C2510.8,100,2474,100,2437,100C2400,100,2363,100,2326,100C2289.2,100,2252,100,2215,100C2178.5,100,2142,100,2105,100C2067.7,100,2031,100,1994,100C1956.9,100,1920,100,1883,100C1846.2,100,1809,100,1772,100C1735.4,100,1698,100,1662,100C1624.6,100,1588,100,1551,100C1513.8,100,1477,100,1440,100C1403.1,100,1366,100,1329,100C1292.3,100,1255,100,1218,100C1181.5,100,1145,100,1108,100C1070.8,100,1034,100,997,100C960,100,923,100,886,100C849.2,100,812,100,775,100C738.5,100,702,100,665,100C627.7,100,591,100,554,100C516.9,100,480,100,443,100C406.2,100,369,100,332,100C295.4,100,258,100,222,100C184.6,100,148,100,111,100C73.8,100,37,100,18,100L0,100Z"/></svg>